<svg xmlns="http://www.w3.org/2000/svg" viewBox="0 0 64 64">
  <defs>
    <linearGradient id="bg" x1="0%" x2="100%" y1="0%" y2="100%">
      <stop offset="0%" stop-color="#34d399"/>
      <stop offset="100%" stop-color="#2563eb"/>
    </linearGradient>
  </defs>
  <rect width="64" height="64" rx="18" fill="url(#bg)"/>
  <path d="M17 18 27 24 22 34 14 28Z" fill="#f8fafc"/>
  <path d="M47 18 37 24 42 34 50 28Z" fill="#f8fafc"/>
  <path d="M20 28c0-7.7 5.4-13 12-13s12 5.3 12 13v6c0 8.1-5.5 14-12 14s-12-5.9-12-14z" fill="#fff7ed"/>
  <path d="M22 44c2.9 3.6 6.3 5 10 5s7.1-1.4 10-5l-4.9-7.2H26.9Z" fill="#f59e0b"/>
  <circle cx="26" cy="31" r="2.2" fill="#1f2937"/>
  <circle cx="38" cy="31" r="2.2" fill="#1f2937"/>
  <path d="M27 37c1.4 1.7 3.1 2.5 5 2.5s3.6-.8 5-2.5" fill="none" stroke="#1f2937" stroke-linecap="round" stroke-width="2.4"/>
  <path d="M23 21c2.8-2.6 5.8-4 9-4s6.2 1.4 9 4" fill="none" stroke="#f97316" stroke-linecap="round" stroke-width="4"/>
  <circle cx="48" cy="48" r="10" fill="#16a34a"/>
  <path d="m43.8 48.2 2.9 2.9 5.5-6.2" fill="none" stroke="#fff" stroke-linecap="round" stroke-linejoin="round" stroke-width="3"/>
</svg>
